<?xml version="1.0" encoding="UTF-8"?>
<svg width="1e3" height="868.7" version="1.1" viewBox="0 0 1e3 868.7" xmlns="http://www.w3.org/2000/svg" xmlns:cc="http://creativecommons.org/ns#" xmlns:dc="http://purl.org/dc/elements/1.1/" xmlns:rdf="http://www.w3.org/1999/02/22-rdf-syntax-ns#">
 <metadata>
  <rdf:RDF>
   <cc:Work rdf:about="">
    <dc:format>image/svg+xml</dc:format>
    <dc:type rdf:resource="http://purl.org/dc/dcmitype/StillImage"/>
    <dc:title/>
   </cc:Work>
  </rdf:RDF>
 </metadata>
 <path d="m483.97 174.95c-11.086-1.6373-22.089-7.1152-31.062-13.667-21.492-15.695-36.043-41.495-36.043-68.497 0-45.068 39.282-84.113 84.139-84.168 12.015-0.015 24.191 2.6483 35.07 7.7966 12.89 6.1002 23.777 14.944 32.411 26.272 12.862 16.875 18.559 38.023 16.517 59.118-1.2776 13.205-12.119 27.005-4.8397 39.078h2.004c13.303-31.951 18.263-63.491 0.12713-95.19-32.579-56.949-117-61.464-155.96-9.018-25.276 34.022-24.101 82.237 2.3347 115.23 9.5812 11.958 22.197 21.157 36.265 27.181 8.3677 3.5832 15.228 5.8768 19.038-4.1353m7.014-16.032c-9.6262-0.78657-19.192-4.9419-27.054-10.461-19.066-13.385-31.596-36.076-29.97-59.679 2.5631-37.219 38.457-68.56 76.062-62.686 28.282 4.4168 52.317 26.127 57.499 54.67 2.3357 12.86-2.5281 22.803-2.5932 35.069-0.0188 3.6062 2.3186 5.5291 5.2144 7.015 8.1393-25.015 8.2856-50.725-7.4549-73.146-31.571-44.971-101.69-39.889-127.51 8.016-15.34 28.469-9.4499 66.528 13.809 89.007 7.9449 7.6794 18.441 13.831 28.968 17.176 6.3828 2.029 12.113 3.1172 13.026-4.981m-255.51-93.186c-31.825 14.176-58.663 36.619-83.166 61.122 4.2615-18.423 10.02-34.931 10.02-54.108-8.5621 3.993-14.624 13.652-20.167 21.042-14.439 19.25-36.769 47.306-38.951 72.144h-1.002c0-8.4459 0.98897-20.865-4.008-28.056-19.63 27.412-38.371 68.918-39.078 103.21h-1.002c-0.3982-9.1333-3.51-19.128-8.016-27.054-6.6354 8.01-8.6842 20.188-11.149 30.06-6.4069 25.66-9.9692 51.803-7.8893 78.156h-1.002c-1.5245-8.5521-7.3271-19.512-14.028-25.05-7.3512 35.634-5.0773 72.957 3.006 108.22h-1.002c-3.2703-7.7355-10.371-16.466-18.036-20.04 0 32.325 5.8147 77.189 25.05 104.21l-23.046-16.032c2.5558 32.116 23.789 75.421 46.092 98.196l-26.052-12.024c1.8012 10.461 8.49 20.23 14.081 29.058 13.583 21.444 29.975 40.455 49.045 57.114l-27.054-7.014c3.1192 9.7715 11.957 17.966 19.038 25.05 16.943 16.95 38.323 40.237 62.124 47.094v1.002l-29.058-2.004c4.5982 8.8397 14.935 14.964 23.046 20.374 20.761 13.849 45.902 31.009 71.142 34.736v1.002l-29.058 3.006c6.6613 8.0391 18.621 12.128 28.056 16.021 23.829 9.8327 50.186 18.936 76.152 20.051v1.002c-8.6964 0.71042-20.232 3.3868-27.054 9.018 19.827 11.528 45.816 12.588 68.136 14.117 12.813 0.87876 27.326 2.7475 40.08 0.4479 8.49-1.5311 15.991-10.771 23.347-11.488 6.0792-0.59318 13.658 2.1012 19.739 2.9349 23.042 3.1573 44.571 9.8577 67.134 15.03v1.002l-77.154 14.86-33.066-1.8337 2.004 17.034c32.131 4.0782 61.979-1.493 93.186-9.3928 13.506-3.4198 30.218-12 44.088-12 13.87 0 30.582 8.5802 44.088 12 31.207 7.8998 61.055 13.471 93.186 9.3928l2.004-17.034-33.066 1.8337-77.154-14.86v-1.002c22.563-5.1724 44.092-11.873 67.134-15.03 6.1373-0.84068 13.715-3.518 19.856-2.9349 7.2555 0.68938 14.788 9.9649 23.23 11.488 12.755 2.2996 27.268 0.43086 40.08-0.4479 22.321-1.529 48.31-2.5892 68.136-14.117-6.8216-5.6313-18.358-8.3076-27.054-9.018v-1.002c25.966-1.1152 52.324-10.218 76.152-20.051 9.4349-3.8928 21.395-7.982 28.056-16.021l-29.058-3.006v-1.002c25.24-3.7274 50.382-20.888 71.142-34.736 8.1112-5.4098 18.448-11.534 23.046-20.374l-29.058 2.004v-1.002c23.802-6.8567 45.181-30.144 62.124-47.094 7.0812-7.0842 15.919-15.279 19.038-25.05l-27.054 7.014c19.07-16.66 35.462-35.67 49.048-57.114 5.5912-8.8277 12.274-18.597 14.078-29.058l-26.052 12.024c22.305-22.776 43.537-66.08 46.092-98.196l-23.046 16.032c19.238-27.019 25.05-71.884 25.05-104.21-7.6654 3.5752-14.77 12.305-18.036 20.04h-1.002c8.0862-35.26 10.361-72.582 3.0061-108.22-6.7035 5.5381-12.505 16.498-14.028 25.05h-1.002c2.0841-26.354-1.483-52.496-7.8858-78.156-2.4679-9.8717-4.517-22.05-11.152-30.06-4.506 7.9258-7.6182 17.921-8.016 27.054h-1.002c-0.70741-34.289-19.448-75.795-39.078-103.21-4.997 7.1914-4.008 19.61-4.008 28.056h-1.002c-2.1824-24.84-24.512-52.893-38.951-72.144-5.5431-7.3898-11.605-17.049-20.167-21.042 0 19.177 5.7575 35.685 10.02 54.108-23.483-23.483-51.897-50.603-84.168-61.122 8.9489 32.719 39.934 62.98 63.126 86.172-21.777-6.1343-42.483-10.02-65.13-10.02 5.6062 7.7936 14.927 12.59 23.046 17.431 17.686 10.543 38.264 23.944 58.116 29.663v1.002l-40.08-10.02c2.1754 7.985 9.9469 14.245 16.032 19.46 13.893 11.903 29.459 25.778 46.092 33.646v1.002l-28.056-10.02c1.8297 9.49 9.7475 18.024 15.982 25.05 13.105 14.77 28.066 27.304 42.134 41.082l-31.062-17.034c4.5952 31.113 35.381 53.018 51.102 78.156-9.7555-10.186-19.784-21.487-33.066-27.054 7.2315 27.938 20.721 51.789 34.068 77.154l-23.046-23.046c0 30.85 15.143 56.276 23.046 85.17h-1.002c-3.1172-10.821-11.08-24.189-20.04-31.062-6.8106 28.608 5.3848 58.041 9.018 86.172h-1.002c-1.6713-11.159-7.8788-22.739-14.028-32.064-5.7044 7.6653-4.8006 20.92-5.025 30.06-0.55812 22.803 0.95391 45.352 1.017 68.136h-1.002c-0.12933-15.651-4.4269-31.591-10.02-46.092h-2.004c-10.412 25.386-17.016 55.619-17.034 83.166h-1.002l-4.008-35.07c-5.8327 4.8206-9.0621 12.298-12.243 19.038-8.0912 17.14-17.266 39.101-18.819 58.116h-1.002l1.002-33.066c-18.698 13.18-35.821 46.392-42.084 68.136h-1.002l5.01-29.058c-24.704 9.503-37.924 42.134-54.108 61.122l10.02-29.058c-25.437 7.3417-46.176 35.154-64.128 53.106 5.4649-8.8567 13.154-17.533 15.03-28.056-27.908 4.1212-55.28 28.457-76.152 45.845-10.929 9.1032-20.386 18.249-21.042 33.314l-61.122 14.168-29.058 7.6884-29.058-7.6884-61.122-14.168c-0.65632-15.064-10.113-24.209-21.042-33.314-20.873-17.388-48.245-41.723-76.152-45.845 1.8758 10.523 9.5651 19.199 15.03 28.056-17.952-17.952-38.691-45.765-64.128-53.106l10.02 29.058c-16.184-18.988-29.404-51.619-54.108-61.122l5.01 29.058h-1.002c-6.2635-21.744-23.386-54.956-42.084-68.136l1.002 33.066h-1.002c-1.5531-19.015-10.727-40.976-18.819-58.116-3.1814-6.7405-6.4108-14.218-12.243-19.038l-4.008 35.07h-1.002c-0.0188-27.547-6.6222-57.781-17.034-83.166h-2.004c-5.5942 14.501-9.8908 30.441-10.02 46.092h-1.002c0.062-22.484 2.0271-44.622 1.0411-67.134-0.41985-9.5892 0.79058-22.866-5.0491-31.062-6.1493 9.3247-12.357 20.905-14.028 32.064h-1.002c3.6333-28.131 15.829-57.564 9.018-86.172-8.9599 6.8728-16.923 20.241-20.04 31.062h-1.002c7.9028-28.895 23.046-54.321 23.046-85.17l-23.046 23.046c13.347-25.366 26.837-49.216 34.068-77.154-13.283 5.5671-23.311 16.868-33.066 27.054 15.721-25.139 46.507-47.043 51.102-78.156l-31.062 17.034c14.069-13.779 29.029-26.313 42.134-41.082 6.2345-7.026 14.152-15.56 15.982-25.05l-28.056 10.02v-1.002c16.693-7.8968 32.067-21.818 46.092-33.657 6.1032-5.1533 13.866-11.497 16.032-19.449l-40.08 10.02v-1.002c19.853-5.7194 40.43-19.12 58.116-29.663 8.1192-4.8407 17.44-9.6373 23.046-17.431-22.647 0-43.354 3.8858-65.13 10.02 18.838-18.838 36.164-38.573 50.514-61.122 4.001-6.2876 12.974-17.268 11.61-25.05m266.53 28.056c6.6262 24.275 12.344 46.209 4.2635 71.142-16.868 52.047-75.434 80.019-90.284 134.27-13.154 48.055-2.6483 106.59 42.934 133.25 11.738 6.8687 37.274 21.457 51.012 12.295 5.4509-3.6353 8.6082-10.966 12.117-16.291 9.5812-14.54 17.483-29.889 25.91-45.09 36.834-66.448 55.617-146.6 26.392-219.44-11.783-29.365-38.685-65.099-72.345-70.14m16.032 15.03c85.3 61.32 70.038 183.17 24.911 264.53-8.5822 15.473-17.766 30.364-27.583 45.09-3.4118 5.1192-7.1212 13.64-12.658 16.711-6.9499 3.8557-19.509-2.8367-25.752-5.9379-27.553-13.685-34.948-42.108-32.976-70.894 2.1132-30.867 14.771-56.97 36.021-79.158 23.928-24.983 63.886-51.489 67.923-89.178 0.97394-9.0852-1.495-16.478-3.8337-25.05h-1.002c11.312 60.929-53.254 90.011-82.726 132.26-14.435 20.695-22.115 50.966-20.39 76.152 0.87975 12.858 4.9088 25.257 5.9218 38.076h-1.002c-8.0301-11.903-16.398-24.027-20.155-38.076-9.2415-34.556-4.7685-73.097 14.84-103.21 20.361-31.264 51.318-55.292 69.134-88.176 7.2265-13.337 11.666-28.831 11.317-44.088-0.1935-8.4559-5.0511-21.212-1.989-29.058m-365.73 18.036-1.002 1.002 1.002-1.002m696.39 0-1.002 1.002 1.002-1.002m-692.38 63.46c0.77455 0 0.16031 0.49899-0.33367 0.33467l0.33367-0.33467m687.37 0c0.77455 0 0.16032 0.49899-0.33367 0.33467l0.33367-0.33467m-568.14 239.15 22.044 1.002c2.1794-50.753 28.871-101.4 66.132-135.1 16.192-14.645 36.094-22.141 52.78-35.206 9.1303-7.1493 17.948-22.382 24.375-32.098-87.947 18.201-165.27 111.07-165.33 201.4m-140.28-195.39-1.002 1.002 1.002-1.002m730.46 0-1.002 1.002 1.002-1.002m-732.46 1.002-1.002 1.002 1.002-1.002m734.47 0-1.002 1.002 1.002-1.002m-263.53 11.022c0 6.515-3.017 17.844-0.39779 23.718 2.4599 5.515 13.622 10.368 18.434 13.984 12.162 9.1403 23.26 19.74 32.985 31.436 26.501 31.871 45.377 73.329 47.175 115.23l22.044-1.002c-0.0369-56.614-32.212-114.25-73.146-151.38-12.98-11.774-29.948-26.946-47.094-31.989m-285.57 184.37 17.435-1.3357 4.2625-22.712 15.157-39.078 26.442-36.068 13.257-13.031 6.6132-26.051c-12.208 4.6283-23.008 15.98-32.064 25.05-28.602 28.646-51.098 71.961-51.102 113.23m280.56-138.28c-1.0421 5.0511-4.8737 12.946-3.3126 17.997 2.1373 6.9168 14.19 13.257 19.33 18.164 11.836 11.303 22.313 25.456 29.817 39.991 6.2645 12.136 11.485 24.752 14.633 38.076 1.5732 6.6593 1.1343 16.756 4.2625 22.712 1.8707 3.5631 13.734 1.3357 17.435 1.3357-6e-3 -52.767-36.405-112.78-82.164-138.28m-514.03 59.118-1.002 1.002 1.002-1.002m830.66 0-1.002 1.002 1.002-1.002m-831.66 50.1-2.004 5.01h-1.002l3.006-5.01m832.67 0 2.004 5.01h-1.002l-1.002-5.01m-896.79 4.008-1.002 1.002 1.002-1.002m960.92 0-1.002 1.002 1.002-1.002m-801.6 39.078c29.248 13.859 59.663 24.737 92.184 26.965 49.205 3.3687 104.77-7.5341 151.3 13.428 21 9.4599 37.496 25.121 47.826 45.78 3.499 6.999 5.9509 14.584 8.2605 22.044 0.83868 2.7064 1.1513 7.1834 3.5972 8.99 5.2204 3.8577 26.061 1.9629 32.443 0.88176 4.9489-0.83868 5.1493-6.9098 6.4148-10.874 3.3768-10.578 7.2184-20.6 13.107-30.06 14.287-22.949 36.71-37.034 62.7-43.202 46.997-11.153 95.71-3.4479 143.29-8.0701 27.867-2.7074 55.131-14.022 80.16-25.882-2.6814-5.7495-11.404-16.505-18.036-17.624-6.2335-1.0511-15.178 4.6463-21.042 6.6022-16.635 5.5501-33.438 12.515-51.102 13.942-72.915 5.8898-170.77-15.341-215.83 59.204-5.3297 8.8166-10.892 18.05-13.628 28.056h-2.004c-2.7365-10.006-8.2986-19.239-13.628-28.056-45.062-74.545-142.92-53.315-215.83-59.204-17.664-1.4268-34.467-8.3918-51.102-13.942-5.8637-1.9559-14.809-7.6533-21.042-6.6022-6.6323 1.1192-15.355 11.875-18.036 17.624m-28.056 27.054c47.863 25.219 101.3 30.06 154.31 30.06 39.492 0 87.657-4.525 119.15 24.477 16.101 14.829 25.203 45.833 30.15 66.705h62.124c6.019 0 18.492 2.3677 23.629-1.0301 3.1894-2.1092 4.2234-7.6262 5.479-10.994 3.2405-8.6914 6.2866-17.477 9.8307-26.052 9.2665-22.419 25.747-38.459 49.237-45.656 37.546-11.503 77.56-6.517 116.23-7.4649 43.364-1.0621 88.488-9.6182 127.25-30.045-3.9008-5.5371-13.108-17.766-20.04-19.106-5.2074-1.007-12.543 4.6503-17.034 6.8236-11.909 5.7605-25.385 10.149-38.076 13.862-40.752 11.92-83.359 7.5691-125.25 9.4038-26.409 1.1563-54.743 2.3347-78.156 16.279-18.582 11.066-30.729 28.601-37.559 48.891-2.7996 8.3176-2.7555 24.842-13.544 25.045-10.346 0.19539-20.713 6e-3 -31.061 6e-3 -3.5882 0-9.4709 1.0862-12.595-1.0301-5.1683-3.499-6.2345-19.156-8.3106-25.022-5.7234-16.165-14.601-31.067-28.192-41.798-27.179-21.459-60.12-18.697-92.184-22.908-34.958-4.5892-70.301 2.8527-105.21-4.8577-16.24-3.5872-32.742-9.2485-48.096-15.619-6.0752-2.52-14.355-9.3006-21.042-9.1593-7.0451 0.14936-17.272 13.839-21.042 19.191m-67.134-8.016-2.004 3.006 2.004-3.006m832.67 0 1.002 3.006-1.002-3.006m-820.64 55.11-1.002 7.014h-1.002l2.004-7.014m808.62 0 1.002 7.014h-1.002v-7.014m-533.07 95.19v5.01l11.022-1.002v56.112l-0.31864 26.008-10.703 10.064c19.558 0 45.732 6.3677 63.125-5.1182 21.15-13.967 11.877-45.553-11.021-50.994 15.625-8.3387 20.805-31.905 2.004-40.203-17.363-7.6653-36.305-2.1764-54.108 0.12337m181.36 1.002c2.1834 5.4258 7.1733 3.2144 12.024 3.006v56.112l-0.31864 26.008-10.703 10.064c18.661 0 42.97 5.8587 60.12-3.525 24.075-13.172 15.1-45.002-8.016-52.587 14.55-9.2485 21.027-31.282 2.004-40.165-15.479-7.2284-39.531-4.7575-55.11 1.0872m-97.194-2.004c1.4319 4.8948 12.277 7.7355 16.013 13.026 15.649 22.157 27.609 44.383 23.984 72.144-1.006 7.6994-10.246 5.5711-11.941 12.024h37.074c-2.0301-6.1764-10.662-4.4188-12.591-11.065-6.2675-21.589 5.5701-40.147 15.288-58.073 6.4649-11.924 10.224-21.015 23.356-26.052v-2.004l-31.062-1.002v4.008c2.6994 0.24549 7.478 0.52404 7.7635 4.1413 0.27555 3.49-3.5251 8.002-5.1794 10.889-4.9739 8.6764-9.2475 18.315-15.61 26.052l-17.702-33.066-9.3667-10.994-20.025-0.0281m-60.12 41.082v-38.076c8.1453 0.022 18.274 0.36774 24.945 5.6493 8.5341 6.7555 6.4078 21.92-1.9038 27.766-6.4359 4.527-15.492 4.6603-23.041 4.6613m181.36 0v-26.052c0-2.9158-0.91383-7.9649 1.0301-10.418 4.8687-6.1433 23.018 1.9509 26.606 6.4529 15.95 20.013-12.632 30.015-27.636 30.017m-490.98-7.6824 0.33367 0.33467c-0.49399 0.1644-1.1082-0.33467-0.33367-0.33467m827.66 0c0.77454 0 0.16028 0.499-0.33369 0.33467l0.33369-0.33467m-515.71 14.299c24.13-11.874 52.037 27.774 25.729 41.101-5.4519 2.7615-22.328 6.7495-27.022 0.77655-3.0401-3.8667-1.0301-14.702-1.0301-19.436 0-4.5872-2.4409-20.097 2.3226-22.442m181.36 0c24.63-12.119 53.361 28.452 25.733 41.56-5.1553 2.4469-24.045 6.2004-27.452-0.51502-2.4379-4.8056-0.60421-14.286-0.60421-19.605 0-4.4709-2.3547-19.137 2.3226-21.44m-396.11 3.4038v3.006h-1.002l1.002-3.006m634.27 0v3.006h-1.002l1.002-3.006m-592.52 35.738-0.33466 0.66733 0.33466-0.66733m550.1 0-0.33467 0.66733 0.33467-0.66733m-548.76 2.3377-1.002 1.002 1.002-1.002m548.1 0-1.002 1.002 1.002-1.002m-500 29.058 1.002 3.006-1.002-3.006m451.9 0-2.004 3.006 2.004-3.006m-397.8 24.048 2.004 3.006-2.004-3.006m343.69 0-3.006 3.006z" fill="#fddb3b"/>
 <g>
  <path d="m483.97 174.95c-11.086-1.6373-22.089-7.1152-31.062-13.667-21.492-15.695-36.043-41.495-36.043-68.497 0-45.068 39.282-84.113 84.139-84.168 12.015-0.015 24.191 2.6483 35.07 7.7966 12.89 6.1002 23.777 14.944 32.411 26.272 12.862 16.875 18.559 38.023 16.517 59.118-1.2776 13.205-12.119 27.005-4.8397 39.078h2.004c13.303-31.951 18.262-63.491 0.1271-95.19-32.579-56.949-117-61.464-155.96-9.018-25.276 34.022-24.101 82.237 2.3347 115.23 9.5812 11.958 22.197 21.157 36.265 27.181 8.3677 3.5832 15.228 5.8768 19.038-4.1353m7.014-16.032c-9.6262-0.78657-19.192-4.9419-27.054-10.461-19.066-13.385-31.596-36.076-29.97-59.679 2.5631-37.219 38.457-68.56 76.062-62.686 28.282 4.4168 52.317 26.127 57.499 54.67 2.3356 12.86-2.5281 22.803-2.5932 35.069-0.019 3.6062 2.3186 5.5291 5.2144 7.015 8.1393-25.015 8.2856-50.725-7.4549-73.146-31.571-44.971-101.69-39.889-127.51 8.016-15.34 28.469-9.4499 66.528 13.809 89.007 7.9449 7.6794 18.441 13.831 28.968 17.176 6.3828 2.029 12.113 3.1172 13.026-4.981m-255.51-93.186c-31.825 14.176-58.663 36.619-83.166 61.122 4.2615-18.423 10.02-34.931 10.02-54.108-8.5621 3.993-14.624 13.652-20.167 21.042-14.439 19.25-36.769 47.306-38.951 72.144h-1.002c0-8.4459 0.98897-20.865-4.008-28.056-19.63 27.412-38.371 68.918-39.078 103.21h-1.002c-0.3982-9.1333-3.51-19.128-8.016-27.054-6.6354 8.01-8.6842 20.188-11.149 30.06-6.4069 25.66-9.9692 51.803-7.8893 78.156h-1.002c-1.5246-8.5521-7.3271-19.512-14.028-25.05-7.3512 35.634-5.0773 72.957 3.006 108.22h-1.002c-3.2702-7.7355-10.371-16.466-18.036-20.04 0 32.325 5.8147 77.189 25.05 104.21l-23.046-16.032c2.5558 32.116 23.789 75.421 46.092 98.196l-26.052-12.024c1.8012 10.461 8.49 20.23 14.081 29.058 13.583 21.444 29.975 40.455 49.045 57.114l-27.054-7.014c3.1192 9.7715 11.957 17.966 19.038 25.05 16.943 16.95 38.323 40.237 62.124 47.094v1.002l-29.058-2.004c4.5982 8.8397 14.935 14.964 23.046 20.374 20.761 13.849 45.902 31.009 71.142 34.736v1.002l-29.058 3.006c6.6613 8.0391 18.621 12.128 28.056 16.021 23.829 9.8327 50.186 18.936 76.152 20.051v1.002c-8.6964 0.71042-20.232 3.3868-27.054 9.018 19.827 11.528 45.816 12.588 68.136 14.117 12.813 0.87876 27.326 2.7475 40.08 0.4479 8.49-1.5311 15.991-10.771 23.347-11.488 6.0792-0.59318 13.658 2.1012 19.739 2.9349 23.042 3.1573 44.571 9.8577 67.134 15.03v1.002l-77.154 14.86-33.066-1.8337 2.004 17.034c32.131 4.0782 61.979-1.493 93.186-9.3928 13.506-3.4198 30.218-12 44.088-12 13.87 0 30.582 8.5802 44.088 12 31.207 7.8998 61.055 13.471 93.186 9.3928l2.004-17.034-33.066 1.8337-77.154-14.86v-1.002c22.563-5.1724 44.092-11.873 67.134-15.03 6.1373-0.84068 13.716-3.518 19.856-2.9349 7.2555 0.68938 14.788 9.9649 23.23 11.488 12.754 2.2996 27.268 0.43086 40.08-0.4479 22.321-1.529 48.31-2.5892 68.136-14.117-6.8216-5.6313-18.358-8.3076-27.054-9.018v-1.002c25.966-1.1152 52.324-10.218 76.152-20.051 9.4349-3.8928 21.395-7.982 28.056-16.021l-29.058-3.006v-1.002c25.24-3.7274 50.382-20.888 71.142-34.736 8.1112-5.4098 18.448-11.534 23.046-20.374l-29.058 2.004v-1.002c23.802-6.8567 45.181-30.144 62.124-47.094 7.0812-7.0842 15.919-15.279 19.038-25.05l-27.054 7.014c19.07-16.66 35.462-35.67 49.048-57.114 5.5912-8.8277 12.274-18.597 14.078-29.058l-26.052 12.024c22.305-22.776 43.537-66.08 46.092-98.196l-23.046 16.032c19.238-27.019 25.05-71.884 25.05-104.21-7.6654 3.5752-14.77 12.305-18.036 20.04h-1.002c8.0862-35.26 10.361-72.582 3.0061-108.22-6.7035 5.5381-12.505 16.498-14.028 25.05h-1.002c2.0841-26.354-1.483-52.496-7.8858-78.156-2.4679-9.8717-4.517-22.05-11.152-30.06-4.5061 7.9258-7.6183 17.921-8.0161 27.054h-1.002c-0.7074-34.289-19.448-75.795-39.078-103.21-4.997 7.1914-4.0081 19.61-4.0081 28.056h-1.002c-2.1823-24.84-24.512-52.893-38.951-72.144-5.5431-7.3898-11.605-17.049-20.167-21.042 0 19.177 5.7575 35.685 10.02 54.108-23.483-23.483-51.897-50.603-84.168-61.122 8.9489 32.719 39.934 62.98 63.126 86.172-21.777-6.1343-42.483-10.02-65.13-10.02 5.6062 7.7936 14.927 12.59 23.046 17.431 17.686 10.543 38.264 23.944 58.116 29.663v1.002l-40.08-10.02c2.1753 7.985 9.9469 14.245 16.032 19.46 13.893 11.903 29.459 25.778 46.092 33.646v1.002l-28.056-10.02c1.8297 9.49 9.7475 18.024 15.982 25.05 13.105 14.77 28.066 27.304 42.134 41.082l-31.062-17.034c4.5952 31.113 35.381 53.018 51.102 78.156-9.7555-10.186-19.784-21.487-33.066-27.054 7.2314 27.938 20.721 51.789 34.068 77.154l-23.046-23.046c0 30.85 15.143 56.276 23.046 85.17h-1.002c-3.1172-10.821-11.08-24.189-20.04-31.062-6.8106 28.608 5.3848 58.041 9.0181 86.172h-1.002c-1.6714-11.159-7.8788-22.739-14.028-32.064-5.7044 7.6653-4.8006 20.92-5.025 30.06-0.5582 22.803 0.9539 45.352 1.017 68.136h-1.002c-0.1293-15.651-4.4269-31.591-10.02-46.092h-2.004c-10.412 25.386-17.016 55.619-17.034 83.166h-1.002l-4.0081-35.07c-5.8326 4.8206-9.0621 12.298-12.243 19.038-8.0912 17.14-17.266 39.101-18.819 58.116h-1.002l1.002-33.066c-18.698 13.18-35.821 46.392-42.084 68.136h-1.002l5.01-29.058c-24.704 9.503-37.924 42.134-54.108 61.122l10.02-29.058c-25.437 7.3417-46.176 35.154-64.128 53.106 5.465-8.8567 13.154-17.533 15.03-28.056-27.908 4.1212-55.28 28.457-76.152 45.845-10.929 9.1032-20.386 18.249-21.042 33.314l-61.122 14.168-29.058 7.6884-29.058-7.6884-61.122-14.168c-0.65632-15.064-10.113-24.209-21.042-33.314-20.873-17.388-48.245-41.723-76.152-45.845 1.8758 10.523 9.5651 19.199 15.03 28.056-17.952-17.952-38.691-45.765-64.128-53.106l10.02 29.058c-16.184-18.988-29.404-51.619-54.108-61.122l5.01 29.058h-1.002c-6.2635-21.744-23.386-54.956-42.084-68.136l1.002 33.066h-1.002c-1.5531-19.015-10.727-40.976-18.819-58.116-3.1814-6.7405-6.4108-14.218-12.243-19.038l-4.008 35.07h-1.002c-0.0188-27.547-6.6222-57.781-17.034-83.166h-2.004c-5.5942 14.501-9.8908 30.441-10.02 46.092h-1.002c0.062-22.484 2.0271-44.622 1.0411-67.134-0.41985-9.5892 0.79058-22.866-5.0491-31.062-6.1493 9.3247-12.357 20.905-14.028 32.064h-1.002c3.6333-28.131 15.829-57.564 9.018-86.172-8.9599 6.8728-16.923 20.241-20.04 31.062h-1.002c7.9028-28.895 23.046-54.321 23.046-85.17l-23.046 23.046c13.347-25.366 26.837-49.216 34.068-77.154-13.283 5.5671-23.311 16.868-33.066 27.054 15.721-25.139 46.507-47.043 51.102-78.156l-31.062 17.034c14.069-13.779 29.029-26.313 42.134-41.082 6.2345-7.026 14.152-15.56 15.982-25.05l-28.056 10.02v-1.002c16.693-7.8968 32.067-21.818 46.092-33.657 6.1032-5.1533 13.866-11.497 16.032-19.449l-40.08 10.02v-1.002c19.853-5.7194 40.43-19.12 58.116-29.663 8.1192-4.8407 17.44-9.6373 23.046-17.431-22.647 0-43.354 3.8858-65.13 10.02 18.838-18.838 36.164-38.573 50.514-61.122 4.001-6.2876 12.974-17.268 11.61-25.05m266.53 28.056c6.6262 24.275 12.344 46.209 4.2635 71.142-16.868 52.047-75.434 80.019-90.284 134.27-13.154 48.055-2.6483 106.59 42.934 133.25 11.738 6.8687 37.274 21.457 51.012 12.295 5.4509-3.6353 8.6082-10.966 12.117-16.291 9.5811-14.54 17.483-29.889 25.91-45.09 36.834-66.448 55.617-146.6 26.392-219.44-11.783-29.365-38.685-65.099-72.345-70.14m16.032 15.03c85.3 61.32 70.038 183.17 24.911 264.53-8.5822 15.473-17.766 30.364-27.583 45.09-3.4118 5.1192-7.1213 13.64-12.658 16.711-6.9499 3.8557-19.509-2.8367-25.752-5.9379-27.553-13.685-34.948-42.108-32.976-70.894 2.1132-30.867 14.771-56.97 36.021-79.158 23.928-24.983 63.886-51.489 67.923-89.178 0.9739-9.0852-1.495-16.478-3.8337-25.05h-1.002c11.312 60.929-53.254 90.011-82.726 132.26-14.435 20.695-22.115 50.966-20.39 76.152 0.87975 12.858 4.9088 25.257 5.9218 38.076h-1.002c-8.0301-11.903-16.398-24.027-20.155-38.076-9.2415-34.556-4.7685-73.097 14.84-103.21 20.361-31.264 51.318-55.292 69.134-88.176 7.2264-13.337 11.666-28.831 11.317-44.088-0.1935-8.4559-5.0511-21.212-1.989-29.058m-365.73 18.036-1.002 1.002 1.002-1.002m696.39 0-1.002 1.002 1.002-1.002m-692.38 63.46c0.77455 0 0.16031 0.49899-0.33367 0.33467l0.33367-0.33467m687.37 0c0.7746 0 0.1603 0.49899-0.3336 0.33467l0.3336-0.33467m-568.14 239.15 22.044 1.002c2.1794-50.753 28.871-101.4 66.132-135.1 16.192-14.645 36.094-22.141 52.78-35.206 9.1303-7.1493 17.948-22.382 24.375-32.098-87.947 18.201-165.27 111.07-165.33 201.4m-140.28-195.39-1.002 1.002 1.002-1.002m730.46 0-1.002 1.002 1.002-1.002m-732.46 1.002-1.002 1.002 1.002-1.002m734.47 0-1.002 1.002 1.002-1.002m-263.53 11.022c0 6.515-3.0171 17.844-0.3978 23.718 2.4599 5.515 13.622 10.368 18.434 13.984 12.162 9.1403 23.26 19.74 32.985 31.436 26.501 31.871 45.377 73.329 47.175 115.23l22.044-1.002c-0.037-56.614-32.212-114.25-73.146-151.38-12.98-11.774-29.948-26.946-47.094-31.989m-285.57 184.37 17.435-1.3357 4.2625-22.712 15.157-39.078 26.442-36.068 13.257-13.031 6.6132-26.051c-12.208 4.6283-23.008 15.98-32.064 25.05-28.602 28.646-51.098 71.961-51.102 113.23m280.56-138.28c-1.0421 5.0511-4.8738 12.946-3.3127 17.997 2.1373 6.9168 14.19 13.257 19.33 18.164 11.836 11.303 22.313 25.456 29.817 39.991 6.2645 12.136 11.485 24.752 14.633 38.076 1.5731 6.6593 1.1343 16.756 4.2625 22.712 1.8708 3.5631 13.734 1.3357 17.435 1.3357-0.01-52.767-36.405-112.78-82.164-138.28m-514.03 59.118-1.002 1.002 1.002-1.002m830.66 0-1.002 1.002 1.002-1.002m-831.66 50.1-2.004 5.01h-1.002l3.006-5.01m832.67 0 2.004 5.01h-1.002l-1.002-5.01m-896.79 4.008-1.002 1.002 1.002-1.002m960.92 0-1.002 1.002 1.002-1.002m-801.6 39.078c29.248 13.859 59.663 24.737 92.184 26.965 49.205 3.3687 104.77-7.5341 151.3 13.428 21 9.4599 37.496 25.121 47.826 45.78 3.499 6.999 5.9509 14.584 8.2605 22.044 0.83868 2.7064 1.1513 7.1834 3.5972 8.99 5.2204 3.8577 26.061 1.9629 32.443 0.88176 4.9489-0.83868 5.1493-6.9098 6.4148-10.874 3.3768-10.578 7.2185-20.6 13.107-30.06 14.287-22.949 36.71-37.034 62.7-43.202 46.997-11.153 95.71-3.4479 143.29-8.0701 27.867-2.7074 55.131-14.022 80.16-25.882-2.6813-5.7495-11.404-16.505-18.036-17.624-6.2335-1.0511-15.178 4.6463-21.042 6.6022-16.635 5.5501-33.438 12.515-51.102 13.942-72.915 5.8898-170.77-15.341-215.83 59.204-5.3296 8.8166-10.892 18.05-13.628 28.056h-2.004c-2.7365-10.006-8.2986-19.239-13.628-28.056-45.062-74.545-142.92-53.315-215.83-59.204-17.664-1.4268-34.467-8.3918-51.102-13.942-5.8637-1.9559-14.809-7.6533-21.042-6.6022-6.6323 1.1192-15.355 11.875-18.036 17.624m-28.056 27.054c47.863 25.219 101.3 30.06 154.31 30.06 39.492 0 87.657-4.525 119.15 24.477 16.101 14.829 25.203 45.833 30.15 66.705h62.124c6.0191 0 18.492 2.3677 23.629-1.0301 3.1894-2.1092 4.2234-7.6262 5.4789-10.994 3.2405-8.6914 6.2866-17.477 9.8307-26.052 9.2665-22.419 25.748-38.459 49.238-45.656 37.546-11.503 77.56-6.517 116.23-7.4649 43.364-1.0621 88.488-9.6182 127.25-30.045-3.9008-5.5371-13.108-17.766-20.04-19.106-5.2074-1.007-12.543 4.6503-17.034 6.8236-11.909 5.7605-25.385 10.149-38.076 13.862-40.752 11.92-83.359 7.5691-125.25 9.4038-26.409 1.1563-54.743 2.3347-78.156 16.279-18.582 11.066-30.729 28.601-37.559 48.891-2.7996 8.3176-2.7555 24.842-13.544 25.045-10.346 0.19539-20.713 6e-3 -31.061 6e-3 -3.5882 0-9.4709 1.0862-12.595-1.0301-5.1683-3.499-6.2345-19.156-8.3106-25.022-5.7234-16.165-14.601-31.067-28.192-41.798-27.179-21.459-60.12-18.697-92.184-22.908-34.958-4.5892-70.301 2.8527-105.21-4.8577-16.24-3.5872-32.742-9.2485-48.096-15.619-6.0752-2.52-14.355-9.3006-21.042-9.1593-7.0451 0.14936-17.272 13.839-21.042 19.191m-67.134-8.016-2.004 3.006 2.004-3.006m832.67 0 1.002 3.006-1.002-3.006m-820.64 55.11-1.002 7.014h-1.002l2.004-7.014m808.62 0 1.002 7.014h-1.002v-7.014m-533.07 95.19v5.01l11.022-1.002v56.112l-0.31864 26.008-10.703 10.064c19.558 0 45.732 6.3677 63.125-5.1182 21.15-13.967 11.877-45.553-11.021-50.994 15.625-8.3387 20.805-31.905 2.004-40.203-17.363-7.6653-36.305-2.1764-54.108 0.12337m181.36 1.002c2.1833 5.4258 7.1733 3.2144 12.024 3.006v56.112l-0.3186 26.008-10.703 10.064c18.661 0 42.97 5.8587 60.12-3.525 24.075-13.172 15.1-45.002-8.016-52.587 14.55-9.2485 21.027-31.282 2.004-40.165-15.479-7.2284-39.531-4.7575-55.11 1.0872m-97.194-2.004c1.4319 4.8948 12.277 7.7355 16.013 13.026 15.649 22.157 27.609 44.383 23.984 72.144-1.006 7.6994-10.246 5.5711-11.941 12.024h37.074c-2.03-6.1764-10.662-4.4188-12.591-11.065-6.2676-21.589 5.5701-40.147 15.288-58.073 6.465-11.924 10.224-21.015 23.356-26.052v-2.004l-31.062-1.002v4.008c2.6994 0.24549 7.478 0.52404 7.7636 4.1413 0.2755 3.49-3.5251 8.002-5.1794 10.889-4.9739 8.6764-9.2475 18.315-15.61 26.052l-17.702-33.066-9.3667-10.994-20.025-0.0281m-60.12 41.082v-38.076c8.1453 0.022 18.274 0.36774 24.945 5.6493 8.5341 6.7555 6.4078 21.92-1.9038 27.766-6.4359 4.527-15.492 4.6603-23.041 4.6613m181.36 0v-26.052c0-2.9158-0.9139-7.9649 1.03-10.418 4.8688-6.1433 23.018 1.9509 26.606 6.4529 15.95 20.013-12.632 30.015-27.636 30.017m-490.98-7.6824 0.33367 0.33467c-0.49399 0.1644-1.1082-0.33467-0.33367-0.33467m827.66 0c0.7746 0 0.1603 0.499-0.3337 0.33467l0.3337-0.33467m-515.71 14.299c24.13-11.874 52.037 27.774 25.729 41.101-5.4519 2.7615-22.328 6.7495-27.022 0.77655-3.0401-3.8667-1.0301-14.702-1.0301-19.436 0-4.5872-2.4409-20.097 2.3226-22.442m181.36 0c24.63-12.119 53.361 28.452 25.734 41.56-5.1553 2.4469-24.045 6.2004-27.452-0.51502-2.4379-4.8056-0.6042-14.286-0.6042-19.605 0-4.4709-2.3547-19.137 2.3226-21.44m-396.11 3.4038v3.006h-1.002l1.002-3.006m634.27 0v3.006h-1.002l1.002-3.006m-592.52 35.738-0.33466 0.66733 0.33466-0.66733m550.1 0-0.3347 0.66733 0.3347-0.66733m-548.76 2.3377-1.002 1.002 1.002-1.002m548.1 0-1.002 1.002 1.002-1.002m-500 29.058 1.002 3.006-1.002-3.006m451.9 0-2.004 3.006 2.004-3.006m-397.8 24.048 2.004 3.006-2.004-3.006m343.69 0-3.006 3.006z" display="none" fill="#222"/>
  <path d="m483.97 174.95c-11.086-1.6373-22.089-7.1152-31.062-13.667-21.492-15.695-36.043-41.495-36.043-68.497 0-45.068 39.282-84.113 84.139-84.168 12.015-0.015 24.191 2.6483 35.07 7.7966 12.89 6.1002 23.777 14.944 32.411 26.272 12.862 16.875 18.559 38.023 16.517 59.118-1.2776 13.205-12.119 27.005-4.8397 39.078h2.004c13.303-31.951 18.262-63.491 0.1271-95.19-32.579-56.949-117-61.464-155.96-9.018-25.276 34.022-24.101 82.237 2.3347 115.23 9.5812 11.958 22.197 21.157 36.265 27.181 8.3678 3.5832 15.228 5.8768 19.038-4.1353m7.014-16.032c-9.6262-0.78657-19.192-4.9419-27.054-10.461-19.066-13.385-31.596-36.076-29.97-59.679 2.5631-37.219 38.457-68.56 76.062-62.686 28.282 4.4168 52.317 26.127 57.499 54.67 2.3356 12.86-2.5281 22.803-2.5932 35.069-0.019 3.6062 2.3186 5.5291 5.2144 7.015 8.1393-25.015 8.2856-50.725-7.4549-73.146-31.571-44.971-101.69-39.889-127.51 8.016-15.34 28.469-9.4499 66.528 13.809 89.007 7.9449 7.6794 18.441 13.831 28.968 17.176 6.3827 2.029 12.113 3.1172 13.026-4.981m-255.51-93.186c-31.825 14.176-58.663 36.619-83.166 61.122 4.2615-18.423 10.02-34.931 10.02-54.108-8.5621 3.993-14.624 13.652-20.167 21.042-14.439 19.25-36.769 47.306-38.951 72.144h-1.002c0-8.4459 0.98897-20.865-4.008-28.056-19.63 27.412-38.371 68.918-39.078 103.21h-1.002c-0.3982-9.1333-3.51-19.128-8.016-27.054-6.6354 8.01-8.6842 20.188-11.149 30.06-6.4069 25.66-9.9692 51.803-7.8893 78.156h-1.002c-1.5246-8.5521-7.3271-19.512-14.028-25.05-7.3512 35.634-5.0773 72.957 3.006 108.22h-1.002c-3.2702-7.7355-10.371-16.466-18.036-20.04 0 32.325 5.8147 77.189 25.05 104.21l-23.046-16.032c2.5558 32.116 23.789 75.421 46.092 98.196l-26.052-12.024c1.8012 10.461 8.49 20.23 14.081 29.058 13.583 21.444 29.975 40.455 49.045 57.114l-27.054-7.014c3.1192 9.7715 11.957 17.966 19.038 25.05 16.943 16.95 38.323 40.237 62.124 47.094v1.002l-29.058-2.004c4.5982 8.8397 14.935 14.964 23.046 20.374 20.761 13.849 45.902 31.009 71.142 34.736v1.002l-29.058 3.006c6.6613 8.0391 18.621 12.128 28.056 16.021 23.829 9.8327 50.186 18.936 76.152 20.051v1.002c-8.6964 0.71042-20.232 3.3868-27.054 9.018 19.827 11.528 45.816 12.588 68.136 14.117 12.813 0.87876 27.326 2.7475 40.08 0.4479 8.49-1.5311 15.991-10.771 23.347-11.488 6.0792-0.59318 13.658 2.1012 19.739 2.9349 23.042 3.1573 44.571 9.8577 67.134 15.03v1.002l-77.154 14.86-33.066-1.8337 2.004 17.034c32.131 4.0782 61.979-1.493 93.186-9.3928 13.506-3.4198 30.218-12 44.088-12 13.87 0 30.582 8.5802 44.088 12 31.207 7.8998 61.055 13.471 93.186 9.3928l2.004-17.034-33.066 1.8337-77.154-14.86v-1.002c22.563-5.1724 44.092-11.873 67.134-15.03 6.1373-0.84068 13.716-3.518 19.856-2.9349 7.2555 0.68938 14.788 9.9649 23.23 11.488 12.754 2.2996 27.268 0.43086 40.08-0.4479 22.321-1.529 48.31-2.5892 68.136-14.117-6.8216-5.6313-18.358-8.3076-27.054-9.018v-1.002c25.966-1.1152 52.324-10.218 76.152-20.051 9.4349-3.8928 21.395-7.982 28.056-16.021l-29.058-3.006v-1.002c25.24-3.7274 50.382-20.888 71.142-34.736 8.1112-5.4098 18.448-11.534 23.046-20.374l-29.058 2.004v-1.002c23.802-6.8567 45.181-30.144 62.124-47.094 7.0812-7.0842 15.919-15.279 19.038-25.05l-27.054 7.014c19.07-16.66 35.462-35.67 49.048-57.114 5.5912-8.8277 12.274-18.597 14.078-29.058l-26.052 12.024c22.305-22.776 43.537-66.08 46.092-98.196l-23.046 16.032c19.238-27.019 25.05-71.884 25.05-104.21-7.6654 3.5752-14.77 12.305-18.036 20.04h-1.002c8.0862-35.26 10.361-72.582 3.0061-108.22-6.7035 5.5381-12.505 16.498-14.028 25.05h-1.002c2.0841-26.354-1.483-52.496-7.8858-78.156-2.4679-9.8717-4.517-22.05-11.152-30.06-4.5061 7.9258-7.6183 17.921-8.0161 27.054h-1.002c-0.7074-34.289-19.448-75.795-39.078-103.21-4.997 7.1914-4.0081 19.61-4.0081 28.056h-1.002c-2.1823-24.84-24.512-52.893-38.951-72.144-5.5431-7.3898-11.605-17.049-20.167-21.042 0 19.177 5.7575 35.685 10.02 54.108-23.483-23.483-51.897-50.603-84.168-61.122 8.9489 32.719 39.934 62.98 63.126 86.172-21.777-6.1343-42.483-10.02-65.13-10.02 5.6062 7.7936 14.927 12.59 23.046 17.431 17.686 10.543 38.264 23.944 58.116 29.663v1.002l-40.08-10.02c2.1753 7.985 9.9469 14.245 16.032 19.46 13.893 11.903 29.459 25.778 46.092 33.646v1.002l-28.056-10.02c1.8297 9.49 9.7475 18.024 15.982 25.05 13.105 14.77 28.066 27.304 42.134 41.082l-31.062-17.034c4.5952 31.113 35.381 53.018 51.102 78.156-9.7555-10.186-19.784-21.487-33.066-27.054 7.2314 27.938 20.721 51.789 34.068 77.154l-23.046-23.046c0 30.85 15.143 56.276 23.046 85.17h-1.002c-3.1172-10.821-11.08-24.189-20.04-31.062-6.8106 28.608 5.3848 58.041 9.0181 86.172h-1.002c-1.6714-11.159-7.8788-22.739-14.028-32.064-5.7044 7.6653-4.8006 20.92-5.025 30.06-0.5582 22.803 0.9539 45.352 1.017 68.136h-1.002c-0.1293-15.651-4.4269-31.591-10.02-46.092h-2.004c-10.412 25.386-17.016 55.619-17.034 83.166h-1.002l-4.0081-35.07c-5.8326 4.8206-9.0621 12.298-12.243 19.038-8.0912 17.14-17.266 39.101-18.819 58.116h-1.002l1.002-33.066c-18.698 13.18-35.821 46.392-42.084 68.136h-1.002l5.01-29.058c-24.704 9.503-37.924 42.134-54.108 61.122l10.02-29.058c-25.437 7.3417-46.176 35.154-64.128 53.106 5.465-8.8567 13.154-17.533 15.03-28.056-27.908 4.1212-55.28 28.457-76.152 45.845-10.929 9.1032-20.386 18.249-21.042 33.314l-61.122 14.168-29.058 7.6884-29.058-7.6884-61.122-14.168c-0.65632-15.064-10.113-24.209-21.042-33.314-20.873-17.388-48.245-41.723-76.152-45.845 1.8758 10.523 9.5651 19.199 15.03 28.056-17.952-17.952-38.691-45.765-64.128-53.106l10.02 29.058c-16.184-18.988-29.404-51.619-54.108-61.122l5.01 29.058h-1.002c-6.2635-21.744-23.386-54.956-42.084-68.136l1.002 33.066h-1.002c-1.5531-19.015-10.727-40.976-18.819-58.116-3.1814-6.7405-6.4108-14.218-12.243-19.038l-4.008 35.07h-1.002c-0.0188-27.547-6.6222-57.781-17.034-83.166h-2.004c-5.5942 14.501-9.8908 30.441-10.02 46.092h-1.002c0.062-22.484 2.0271-44.622 1.0411-67.134-0.41985-9.5892 0.79058-22.866-5.0491-31.062-6.1493 9.3247-12.357 20.905-14.028 32.064h-1.002c3.6333-28.131 15.829-57.564 9.018-86.172-8.9599 6.8728-16.923 20.241-20.04 31.062h-1.002c7.9028-28.895 23.046-54.321 23.046-85.17l-23.046 23.046c13.347-25.366 26.837-49.216 34.068-77.154-13.283 5.5671-23.311 16.868-33.066 27.054 15.721-25.139 46.507-47.043 51.102-78.156l-31.062 17.034c14.069-13.779 29.029-26.313 42.134-41.082 6.2345-7.026 14.152-15.56 15.982-25.05l-28.056 10.02v-1.002c16.693-7.8968 32.067-21.818 46.092-33.657 6.1032-5.1533 13.866-11.497 16.032-19.449l-40.08 10.02v-1.002c19.853-5.7194 40.43-19.12 58.116-29.663 8.1192-4.8407 17.44-9.6373 23.046-17.431-22.647 0-43.354 3.8858-65.13 10.02 18.838-18.838 36.164-38.573 50.514-61.122 4.001-6.2876 12.974-17.268 11.61-25.05m266.53 28.056c6.6263 24.275 12.344 46.209 4.2636 71.142-16.868 52.047-75.434 80.019-90.284 134.27-13.154 48.055-2.6483 106.59 42.934 133.25 11.738 6.8687 37.274 21.457 51.012 12.295 5.4509-3.6353 8.6082-10.966 12.117-16.291 9.5811-14.54 17.483-29.889 25.91-45.09 36.834-66.448 55.617-146.6 26.392-219.44-11.783-29.365-38.685-65.099-72.345-70.14m16.032 15.03c85.3 61.32 70.038 183.17 24.911 264.53-8.5822 15.473-17.766 30.364-27.583 45.09-3.4118 5.1192-7.1213 13.64-12.658 16.711-6.9499 3.8557-19.509-2.8367-25.752-5.9379-27.553-13.685-34.948-42.108-32.976-70.894 2.1133-30.867 14.771-56.97 36.021-79.158 23.928-24.983 63.886-51.489 67.923-89.178 0.9739-9.0852-1.495-16.478-3.8337-25.05h-1.002c11.312 60.929-53.254 90.011-82.726 132.26-14.435 20.695-22.115 50.966-20.39 76.152 0.8798 12.858 4.9088 25.257 5.9219 38.076h-1.002c-8.0301-11.903-16.398-24.027-20.155-38.076-9.2415-34.556-4.7685-73.097 14.84-103.21 20.361-31.264 51.318-55.292 69.134-88.176 7.2264-13.337 11.666-28.831 11.317-44.088-0.1935-8.4559-5.0511-21.212-1.989-29.058m-365.73 18.036-1.002 1.002 1.002-1.002m696.39 0-1.002 1.002 1.002-1.002m-692.38 63.46c0.77455 0 0.16031 0.49899-0.33367 0.33467l0.33367-0.33467m687.37 0c0.7746 0 0.1603 0.49899-0.3336 0.33467l0.3336-0.33467m-568.14 239.15 22.044 1.002c2.1794-50.753 28.871-101.4 66.132-135.1 16.192-14.645 36.094-22.141 52.78-35.206 9.1303-7.1493 17.948-22.382 24.375-32.098-87.947 18.201-165.27 111.07-165.33 201.4m-140.28-195.39-1.002 1.002 1.002-1.002m730.46 0-1.002 1.002 1.002-1.002m-732.46 1.002-1.002 1.002 1.002-1.002m734.47 0-1.002 1.002 1.002-1.002m-263.53 11.022c0 6.515-3.0171 17.844-0.3978 23.718 2.4599 5.515 13.622 10.368 18.434 13.984 12.162 9.1403 23.26 19.74 32.985 31.436 26.501 31.871 45.377 73.329 47.175 115.23l22.044-1.002c-0.037-56.614-32.212-114.25-73.146-151.38-12.98-11.774-29.948-26.946-47.094-31.989m-285.57 184.37 17.435-1.3357 4.2625-22.712 15.157-39.078 26.442-36.068 13.257-13.031 6.6132-26.051c-12.208 4.6283-23.008 15.98-32.064 25.05-28.602 28.646-51.098 71.961-51.102 113.23m280.56-138.28c-1.0421 5.0511-4.8738 12.946-3.3127 17.997 2.1373 6.9168 14.19 13.257 19.33 18.164 11.836 11.303 22.313 25.456 29.817 39.991 6.2645 12.136 11.485 24.752 14.633 38.076 1.5731 6.6593 1.1343 16.756 4.2625 22.712 1.8708 3.5631 13.734 1.3357 17.435 1.3357-0.01-52.767-36.405-112.78-82.164-138.28m-514.03 59.118-1.002 1.002 1.002-1.002m830.66 0-1.002 1.002 1.002-1.002m-831.66 50.1-2.004 5.01h-1.002l3.006-5.01m832.67 0 2.004 5.01h-1.002l-1.002-5.01m-896.79 4.008-1.002 1.002 1.002-1.002m960.92 0-1.002 1.002 1.002-1.002m-801.6 39.078c29.248 13.859 59.663 24.737 92.184 26.965 49.205 3.3687 104.77-7.5341 151.3 13.428 21 9.4599 37.496 25.121 47.826 45.78 3.499 6.999 5.9509 14.584 8.2606 22.044 0.8386 2.7064 1.1513 7.1834 3.5972 8.99 5.2204 3.8577 26.061 1.9629 32.443 0.88176 4.9489-0.83868 5.1493-6.9098 6.4148-10.874 3.3768-10.578 7.2185-20.6 13.107-30.06 14.287-22.949 36.71-37.034 62.7-43.202 46.997-11.153 95.71-3.4479 143.29-8.0701 27.867-2.7074 55.131-14.022 80.16-25.882-2.6813-5.7495-11.404-16.505-18.036-17.624-6.2335-1.0511-15.178 4.6463-21.042 6.6022-16.635 5.5501-33.438 12.515-51.102 13.942-72.915 5.8898-170.77-15.341-215.83 59.204-5.3296 8.8166-10.892 18.05-13.628 28.056h-2.004c-2.7365-10.006-8.2986-19.239-13.628-28.056-45.062-74.545-142.92-53.315-215.83-59.204-17.664-1.4268-34.467-8.3918-51.102-13.942-5.8637-1.9559-14.809-7.6533-21.042-6.6022-6.6323 1.1192-15.355 11.875-18.036 17.624m-28.056 27.054c47.863 25.219 101.3 30.06 154.31 30.06 39.492 0 87.657-4.525 119.15 24.477 16.101 14.829 25.203 45.833 30.15 66.705h62.124c6.0191 0 18.492 2.3677 23.629-1.0301 3.1894-2.1092 4.2234-7.6262 5.4789-10.994 3.2405-8.6914 6.2866-17.477 9.8307-26.052 9.2665-22.419 25.748-38.459 49.238-45.656 37.546-11.503 77.56-6.517 116.23-7.4649 43.364-1.0621 88.488-9.6182 127.25-30.045-3.9008-5.5371-13.108-17.766-20.04-19.106-5.2074-1.007-12.543 4.6503-17.034 6.8236-11.909 5.7605-25.385 10.149-38.076 13.862-40.752 11.92-83.359 7.5691-125.25 9.4038-26.409 1.1563-54.743 2.3347-78.156 16.279-18.582 11.066-30.729 28.601-37.559 48.891-2.7996 8.3176-2.7555 24.842-13.544 25.045-10.346 0.19539-20.714 6e-3 -31.061 6e-3 -3.5881 0-9.4709 1.0862-12.595-1.0301-5.1684-3.499-6.2345-19.156-8.3107-25.022-5.7234-16.165-14.601-31.067-28.192-41.798-27.179-21.459-60.12-18.697-92.184-22.908-34.958-4.5892-70.301 2.8527-105.21-4.8577-16.24-3.5872-32.742-9.2485-48.096-15.619-6.0752-2.52-14.355-9.3006-21.042-9.1593-7.0451 0.14936-17.272 13.839-21.042 19.191m-67.134-8.016-2.004 3.006 2.004-3.006m832.67 0 1.002 3.006-1.002-3.006m-820.64 55.11-1.002 7.014h-1.002l2.004-7.014m808.62 0 1.002 7.014h-1.002v-7.014m-533.07 95.19v5.01l11.022-1.002v56.112l-0.31864 26.008-10.703 10.064c19.558 0 45.732 6.3677 63.125-5.1182 21.15-13.967 11.877-45.553-11.021-50.994 15.625-8.3387 20.805-31.905 2.004-40.203-17.363-7.6653-36.305-2.1764-54.108 0.12337m181.36 1.002c2.1833 5.4258 7.1733 3.2144 12.024 3.006v56.112l-0.3186 26.008-10.703 10.064c18.661 0 42.97 5.8587 60.12-3.525 24.075-13.172 15.1-45.002-8.016-52.587 14.55-9.2485 21.027-31.282 2.004-40.165-15.479-7.2284-39.531-4.7575-55.11 1.0872m-97.194-2.004c1.4319 4.8948 12.277 7.7355 16.013 13.026 15.649 22.157 27.609 44.383 23.984 72.144-1.006 7.6994-10.246 5.5711-11.941 12.024h37.074c-2.03-6.1764-10.662-4.4188-12.591-11.065-6.2676-21.589 5.5701-40.147 15.288-58.073 6.465-11.924 10.224-21.015 23.356-26.052v-2.004l-31.062-1.002v4.008c2.6994 0.24549 7.478 0.52404 7.7636 4.1413 0.2755 3.49-3.5251 8.002-5.1794 10.889-4.9739 8.6764-9.2475 18.315-15.61 26.052l-17.702-33.066-9.3667-10.994-20.025-0.0281m-60.12 41.082v-38.076c8.1453 0.022 18.274 0.36774 24.945 5.6493 8.5341 6.7555 6.4078 21.92-1.9038 27.766-6.4359 4.527-15.492 4.6603-23.041 4.6613m181.36 0v-26.052c0-2.9158-0.9139-7.9649 1.03-10.418 4.8688-6.1433 23.018 1.9509 26.606 6.4529 15.95 20.013-12.632 30.015-27.636 30.017m-490.98-7.6824 0.33367 0.33467c-0.49399 0.1644-1.1082-0.33467-0.33367-0.33467m827.66 0c0.7746 0 0.1603 0.499-0.3337 0.33467l0.3337-0.33467m-515.71 14.299c24.13-11.874 52.037 27.774 25.729 41.101-5.4519 2.7615-22.328 6.7495-27.022 0.77655-3.0401-3.8667-1.0301-14.702-1.0301-19.436 0-4.5872-2.4409-20.097 2.3226-22.442m181.36 0c24.63-12.119 53.361 28.452 25.734 41.56-5.1553 2.4469-24.045 6.2004-27.452-0.51502-2.4379-4.8056-0.6042-14.286-0.6042-19.605 0-4.4709-2.3547-19.137 2.3226-21.44m-396.11 3.4038v3.006h-1.002l1.002-3.006m634.27 0v3.006h-1.002l1.002-3.006m-592.52 35.738-0.33466 0.66733 0.33466-0.66733m550.1 0-0.3347 0.66733 0.3347-0.66733m-548.76 2.3377-1.002 1.002 1.002-1.002m548.1 0-1.002 1.002 1.002-1.002m-500 29.058 1.002 3.006-1.002-3.006m451.9 0-2.004 3.006 2.004-3.006m-397.8 24.048 2.004 3.006-2.004-3.006m343.69 0-3.006 3.006z" display="none" fill="#fdfff5"/>
  <path d="m483.97 174.95c-11.086-1.6373-22.089-7.1152-31.062-13.667-21.492-15.695-36.043-41.495-36.043-68.497 0-45.068 39.282-84.113 84.139-84.168 12.015-0.015 24.191 2.6483 35.07 7.7966 12.89 6.1002 23.777 14.944 32.411 26.272 12.862 16.875 18.559 38.023 16.517 59.118-1.2776 13.205-12.119 27.005-4.8397 39.078h2.004c13.303-31.951 18.263-63.491 0.1271-95.19-32.579-56.949-117-61.464-155.96-9.018-25.276 34.022-24.101 82.237 2.3347 115.23 9.5812 11.958 22.197 21.157 36.264 27.181 8.3678 3.5832 15.228 5.8768 19.038-4.1353m7.014-16.032c-9.6262-0.78657-19.192-4.9419-27.054-10.461-19.066-13.385-31.596-36.076-29.97-59.679 2.5631-37.219 38.457-68.56 76.062-62.686 28.282 4.4168 52.317 26.127 57.499 54.67 2.3356 12.86-2.5281 22.803-2.5932 35.069-0.019 3.6062 2.3186 5.5291 5.2144 7.015 8.1393-25.015 8.2856-50.725-7.4549-73.146-31.571-44.971-101.69-39.889-127.51 8.016-15.34 28.469-9.4499 66.528 13.809 89.007 7.9449 7.6794 18.441 13.831 28.968 17.176 6.3827 2.029 12.113 3.1172 13.026-4.981m-255.51-93.186c-31.825 14.176-58.663 36.619-83.166 61.122 4.2615-18.423 10.02-34.931 10.02-54.108-8.5621 3.993-14.624 13.652-20.167 21.042-14.439 19.25-36.769 47.306-38.951 72.144h-1.002c0-8.4459 0.98897-20.865-4.008-28.056-19.63 27.412-38.371 68.918-39.078 103.21h-1.002c-0.3982-9.1333-3.51-19.128-8.016-27.054-6.6354 8.01-8.6842 20.188-11.149 30.06-6.4069 25.66-9.9692 51.803-7.8893 78.156h-1.002c-1.5246-8.5521-7.3271-19.512-14.028-25.05-7.3512 35.634-5.0773 72.957 3.006 108.22h-1.002c-3.2702-7.7355-10.371-16.466-18.036-20.04 0 32.325 5.8147 77.189 25.05 104.21l-23.046-16.032c2.5558 32.116 23.789 75.421 46.092 98.196l-26.052-12.024c1.8012 10.461 8.49 20.23 14.081 29.058 13.583 21.444 29.975 40.455 49.045 57.114l-27.054-7.014c3.1192 9.7715 11.957 17.966 19.038 25.05 16.943 16.95 38.323 40.237 62.124 47.094v1.002l-29.058-2.004c4.5982 8.8397 14.935 14.964 23.046 20.374 20.761 13.849 45.902 31.009 71.142 34.736v1.002l-29.058 3.006c6.6613 8.0391 18.621 12.128 28.056 16.021 23.829 9.8327 50.186 18.936 76.152 20.051v1.002c-8.6964 0.71042-20.233 3.3868-27.054 9.018 19.827 11.528 45.816 12.588 68.136 14.117 12.813 0.87876 27.326 2.7475 40.08 0.4479 8.49-1.5311 15.991-10.771 23.347-11.488 6.0792-0.59318 13.658 2.1012 19.739 2.9349 23.042 3.1573 44.571 9.8577 67.134 15.03v1.002l-77.154 14.86-33.066-1.8337 2.004 17.034c32.131 4.0782 61.979-1.493 93.186-9.3928 13.506-3.4198 30.218-12 44.088-12 13.87 0 30.582 8.5802 44.088 12 31.207 7.8998 61.055 13.471 93.186 9.3928l2.004-17.034-33.066 1.8337-77.154-14.86v-1.002c22.563-5.1724 44.092-11.873 67.134-15.03 6.1373-0.84068 13.716-3.518 19.856-2.9349 7.2555 0.68938 14.788 9.9649 23.23 11.488 12.754 2.2996 27.268 0.43086 40.08-0.4479 22.321-1.529 48.31-2.5892 68.136-14.117-6.8216-5.6313-18.358-8.3076-27.054-9.018v-1.002c25.966-1.1152 52.324-10.218 76.152-20.051 9.4349-3.8928 21.395-7.982 28.056-16.021l-29.058-3.006v-1.002c25.24-3.7274 50.382-20.888 71.142-34.736 8.1112-5.4098 18.448-11.534 23.046-20.374l-29.058 2.004v-1.002c23.802-6.8567 45.181-30.144 62.124-47.094 7.0812-7.0842 15.919-15.279 19.038-25.05l-27.054 7.014c19.07-16.66 35.462-35.67 49.048-57.114 5.5912-8.8277 12.274-18.597 14.078-29.058l-26.052 12.024c22.305-22.776 43.537-66.08 46.092-98.196l-23.046 16.032c19.238-27.019 25.05-71.884 25.05-104.21-7.6654 3.5752-14.77 12.305-18.036 20.04h-1.002c8.0862-35.26 10.361-72.582 3.0061-108.22-6.7035 5.5381-12.505 16.498-14.028 25.05h-1.002c2.0841-26.354-1.483-52.496-7.8858-78.156-2.4679-9.8717-4.517-22.05-11.152-30.06-4.5061 7.9258-7.6183 17.921-8.0161 27.054h-1.002c-0.7074-34.289-19.448-75.795-39.078-103.21-4.997 7.1914-4.0081 19.61-4.0081 28.056h-1.002c-2.1823-24.84-24.512-52.893-38.951-72.144-5.5431-7.3898-11.605-17.049-20.167-21.042 0 19.177 5.7575 35.685 10.02 54.108-23.483-23.483-51.897-50.603-84.168-61.122 8.9489 32.719 39.934 62.98 63.126 86.172-21.777-6.1343-42.483-10.02-65.13-10.02 5.6062 7.7936 14.927 12.59 23.046 17.431 17.686 10.543 38.264 23.944 58.116 29.663v1.002l-40.08-10.02c2.1753 7.985 9.9469 14.245 16.032 19.46 13.893 11.903 29.459 25.778 46.092 33.646v1.002l-28.056-10.02c1.8297 9.49 9.7475 18.024 15.982 25.05 13.105 14.77 28.066 27.304 42.134 41.082l-31.062-17.034c4.5952 31.113 35.381 53.018 51.102 78.156-9.7555-10.186-19.784-21.487-33.066-27.054 7.2314 27.938 20.721 51.789 34.068 77.154l-23.046-23.046c0 30.85 15.143 56.276 23.046 85.17h-1.002c-3.1172-10.821-11.08-24.189-20.04-31.062-6.8106 28.608 5.3848 58.041 9.0181 86.172h-1.002c-1.6714-11.159-7.8788-22.739-14.028-32.064-5.7044 7.6653-4.8006 20.92-5.025 30.06-0.5582 22.803 0.9539 45.352 1.017 68.136h-1.002c-0.1293-15.651-4.4269-31.591-10.02-46.092h-2.004c-10.412 25.386-17.016 55.619-17.034 83.166h-1.002l-4.0081-35.07c-5.8326 4.8206-9.0621 12.298-12.243 19.038-8.0912 17.14-17.266 39.101-18.819 58.116h-1.002l1.002-33.066c-18.698 13.18-35.821 46.392-42.084 68.136h-1.002l5.01-29.058c-24.704 9.503-37.924 42.134-54.108 61.122l10.02-29.058c-25.437 7.3417-46.176 35.154-64.128 53.106 5.465-8.8567 13.154-17.533 15.03-28.056-27.908 4.1212-55.28 28.457-76.152 45.845-10.929 9.1032-20.386 18.249-21.042 33.314l-61.122 14.168-29.058 7.6884-29.058-7.6884-61.122-14.168c-0.6563-15.064-10.113-24.209-21.042-33.314-20.873-17.388-48.245-41.723-76.152-45.845 1.8758 10.523 9.5652 19.199 15.03 28.056-17.952-17.952-38.691-45.765-64.128-53.106l10.02 29.058c-16.184-18.988-29.404-51.619-54.108-61.122l5.01 29.058h-1.002c-6.2635-21.744-23.386-54.956-42.084-68.136l1.002 33.066h-1.002c-1.5531-19.015-10.727-40.976-18.819-58.116-3.1814-6.7405-6.4108-14.218-12.243-19.038l-4.008 35.07h-1.002c-0.0188-27.547-6.6222-57.781-17.034-83.166h-2.004c-5.5942 14.501-9.8908 30.441-10.02 46.092h-1.002c0.062-22.484 2.0271-44.622 1.0411-67.134-0.41985-9.5892 0.79058-22.866-5.0491-31.062-6.1493 9.3247-12.357 20.905-14.028 32.064h-1.002c3.6333-28.131 15.829-57.564 9.018-86.172-8.9599 6.8728-16.923 20.241-20.04 31.062h-1.002c7.9028-28.895 23.046-54.321 23.046-85.17l-23.046 23.046c13.347-25.366 26.837-49.216 34.068-77.154-13.283 5.5671-23.311 16.868-33.066 27.054 15.721-25.139 46.507-47.043 51.102-78.156l-31.062 17.034c14.069-13.779 29.029-26.313 42.134-41.082 6.2345-7.026 14.152-15.56 15.982-25.05l-28.056 10.02v-1.002c16.693-7.8968 32.067-21.818 46.092-33.657 6.1032-5.1533 13.866-11.497 16.032-19.449l-40.08 10.02v-1.002c19.853-5.7194 40.43-19.12 58.116-29.663 8.1193-4.8407 17.44-9.6373 23.046-17.431-22.647 0-43.354 3.8858-65.13 10.02 18.838-18.838 36.164-38.573 50.514-61.122 4.001-6.2876 12.974-17.268 11.61-25.05m266.53 28.056c6.6263 24.275 12.344 46.209 4.2636 71.142-16.868 52.047-75.434 80.019-90.284 134.27-13.154 48.055-2.6482 106.59 42.934 133.25 11.738 6.8687 37.274 21.457 51.012 12.295 5.4509-3.6353 8.6082-10.966 12.117-16.291 9.5811-14.54 17.483-29.889 25.91-45.09 36.834-66.448 55.617-146.6 26.392-219.44-11.783-29.365-38.685-65.099-72.345-70.14m16.032 15.03c85.3 61.32 70.038 183.17 24.911 264.53-8.5822 15.473-17.766 30.364-27.583 45.09-3.4118 5.1192-7.1213 13.64-12.658 16.711-6.9499 3.8557-19.509-2.8367-25.752-5.9379-27.553-13.685-34.948-42.108-32.976-70.894 2.1133-30.867 14.771-56.97 36.021-79.158 23.928-24.983 63.886-51.489 67.923-89.178 0.9739-9.0852-1.495-16.478-3.8337-25.05h-1.002c11.312 60.929-53.254 90.011-82.726 132.26-14.435 20.695-22.115 50.966-20.39 76.152 0.8798 12.858 4.9088 25.257 5.9219 38.076h-1.002c-8.0301-11.903-16.398-24.027-20.155-38.076-9.2414-34.556-4.7685-73.097 14.84-103.21 20.361-31.264 51.318-55.292 69.134-88.176 7.2264-13.337 11.666-28.831 11.317-44.088-0.1935-8.4559-5.0511-21.212-1.989-29.058m-365.73 18.036-1.002 1.002 1.002-1.002m696.39 0-1.002 1.002 1.002-1.002m-692.38 63.46c0.77455 0 0.16031 0.49899-0.33367 0.33467l0.33367-0.33467m687.37 0c0.7746 0 0.1603 0.49899-0.3336 0.33467l0.3336-0.33467m-568.14 239.15 22.044 1.002c2.1793-50.753 28.871-101.4 66.132-135.1 16.192-14.645 36.094-22.141 52.78-35.206 9.1303-7.1493 17.948-22.382 24.375-32.098-87.947 18.201-165.27 111.07-165.33 201.4m-140.28-195.39-1.002 1.002 1.002-1.002m730.46 0-1.002 1.002 1.002-1.002m-732.46 1.002-1.002 1.002 1.002-1.002m734.47 0-1.002 1.002 1.002-1.002m-263.53 11.022c0 6.515-3.0171 17.844-0.3978 23.718 2.4599 5.515 13.622 10.368 18.434 13.984 12.162 9.1403 23.26 19.74 32.985 31.436 26.501 31.871 45.377 73.329 47.175 115.23l22.044-1.002c-0.037-56.614-32.212-114.25-73.146-151.38-12.98-11.774-29.948-26.946-47.094-31.989m-285.57 184.37 17.435-1.3357 4.2626-22.712 15.157-39.078 26.442-36.068 13.256-13.031 6.6132-26.051c-12.208 4.6283-23.008 15.98-32.064 25.05-28.602 28.646-51.098 71.961-51.102 113.23m280.56-138.28c-1.0421 5.0511-4.8738 12.946-3.3127 17.997 2.1373 6.9168 14.19 13.257 19.33 18.164 11.836 11.303 22.313 25.456 29.817 39.991 6.2645 12.136 11.485 24.752 14.633 38.076 1.5731 6.6593 1.1343 16.756 4.2625 22.712 1.8708 3.5631 13.735 1.3357 17.435 1.3357-0.01-52.767-36.405-112.78-82.164-138.28m-514.03 59.118-1.002 1.002 1.002-1.002m830.66 0-1.002 1.002 1.002-1.002m-831.66 50.1-2.004 5.01h-1.002l3.006-5.01m832.67 0 2.004 5.01h-1.002l-1.002-5.01m-896.79 4.008-1.002 1.002 1.002-1.002m960.92 0-1.002 1.002 1.002-1.002m-801.6 39.078c29.248 13.859 59.663 24.737 92.184 26.965 49.205 3.3687 104.77-7.5341 151.3 13.428 21 9.4599 37.496 25.121 47.826 45.78 3.499 6.999 5.9509 14.584 8.2606 22.044 0.8386 2.7064 1.1513 7.1834 3.5972 8.99 5.2204 3.8577 26.061 1.9629 32.443 0.88176 4.9489-0.83868 5.1493-6.9098 6.4148-10.874 3.3768-10.578 7.2185-20.6 13.107-30.06 14.287-22.949 36.71-37.034 62.7-43.202 46.997-11.153 95.71-3.4479 143.29-8.0701 27.867-2.7074 55.131-14.022 80.16-25.882-2.6813-5.7495-11.404-16.505-18.036-17.624-6.2335-1.0511-15.178 4.6463-21.042 6.6022-16.635 5.5501-33.438 12.515-51.102 13.942-72.915 5.8898-170.77-15.341-215.83 59.204-5.3296 8.8166-10.892 18.05-13.628 28.056h-2.004c-2.7365-10.006-8.2986-19.239-13.628-28.056-45.062-74.545-142.92-53.315-215.83-59.204-17.664-1.4268-34.467-8.3918-51.102-13.942-5.8638-1.9559-14.809-7.6533-21.042-6.6022-6.6323 1.1192-15.355 11.875-18.036 17.624m-28.056 27.054c47.863 25.219 101.3 30.06 154.31 30.06 39.492 0 87.657-4.525 119.15 24.477 16.101 14.829 25.203 45.833 30.15 66.705h62.124c6.0191 0 18.492 2.3677 23.629-1.0301 3.1894-2.1092 4.2234-7.6262 5.4789-10.994 3.2405-8.6914 6.2866-17.477 9.8307-26.052 9.2665-22.419 25.748-38.459 49.238-45.656 37.546-11.503 77.56-6.517 116.23-7.4649 43.364-1.0621 88.488-9.6182 127.25-30.045-3.9008-5.5371-13.108-17.766-20.04-19.106-5.2074-1.007-12.543 4.6503-17.034 6.8236-11.909 5.7605-25.385 10.149-38.076 13.862-40.752 11.92-83.359 7.5691-125.25 9.4038-26.409 1.1563-54.743 2.3347-78.156 16.279-18.582 11.066-30.729 28.601-37.559 48.891-2.7996 8.3176-2.7555 24.842-13.544 25.045-10.346 0.19539-20.714 6e-3 -31.061 6e-3 -3.5881 0-9.4709 1.0862-12.595-1.0301-5.1684-3.499-6.2345-19.156-8.3107-25.022-5.7234-16.165-14.601-31.067-28.192-41.798-27.179-21.459-60.12-18.697-92.184-22.908-34.958-4.5892-70.301 2.8527-105.21-4.8577-16.24-3.5872-32.742-9.2485-48.096-15.619-6.0752-2.52-14.355-9.3006-21.042-9.1593-7.0451 0.14936-17.272 13.839-21.042 19.191m-67.134-8.016-2.004 3.006 2.004-3.006m832.67 0 1.002 3.006-1.002-3.006m-820.64 55.11-1.002 7.014h-1.002l2.004-7.014m808.62 0 1.002 7.014h-1.002v-7.014m-533.07 95.19v5.01l11.022-1.002v56.112l-0.3186 26.008-10.703 10.064c19.558 0 45.732 6.3677 63.125-5.1182 21.15-13.967 11.877-45.553-11.021-50.994 15.625-8.3387 20.805-31.905 2.004-40.203-17.363-7.6653-36.305-2.1764-54.108 0.12337m181.36 1.002c2.1833 5.4258 7.1733 3.2144 12.024 3.006v56.112l-0.3186 26.008-10.703 10.064c18.661 0 42.97 5.8587 60.12-3.525 24.075-13.172 15.1-45.002-8.016-52.587 14.55-9.2485 21.027-31.282 2.004-40.165-15.479-7.2284-39.531-4.7575-55.11 1.0872m-97.194-2.004c1.4319 4.8948 12.277 7.7355 16.013 13.026 15.649 22.157 27.609 44.383 23.984 72.144-1.006 7.6994-10.246 5.5711-11.941 12.024h37.074c-2.03-6.1764-10.662-4.4188-12.591-11.065-6.2676-21.589 5.5701-40.147 15.288-58.073 6.465-11.924 10.224-21.015 23.356-26.052v-2.004l-31.062-1.002v4.008c2.6994 0.24549 7.478 0.52404 7.7636 4.1413 0.2755 3.49-3.5251 8.002-5.1794 10.889-4.9739 8.6764-9.2475 18.315-15.61 26.052l-17.702-33.066-9.3667-10.994-20.025-0.0281m-60.12 41.082v-38.076c8.1453 0.022 18.274 0.36774 24.945 5.6493 8.534 6.7555 6.4078 21.92-1.9038 27.766-6.4359 4.527-15.492 4.6603-23.041 4.6613m181.36 0v-26.052c0-2.9158-0.9139-7.9649 1.03-10.418 4.8688-6.1433 23.018 1.9509 26.606 6.4529 15.95 20.013-12.632 30.015-27.636 30.017m-490.98-7.6824 0.33367 0.33467c-0.49399 0.1644-1.1082-0.33467-0.33367-0.33467m827.66 0c0.7746 0 0.1603 0.499-0.3337 0.33467l0.3337-0.33467m-515.71 14.299c24.13-11.874 52.037 27.774 25.73 41.101-5.4519 2.7615-22.328 6.7495-27.022 0.77655-3.04-3.8667-1.03-14.702-1.03-19.436 0-4.5872-2.4409-20.097 2.3226-22.442m181.36 0c24.63-12.119 53.361 28.452 25.734 41.56-5.1553 2.4469-24.045 6.2004-27.452-0.51502-2.4379-4.8056-0.6042-14.286-0.6042-19.605 0-4.4709-2.3547-19.137 2.3226-21.44m-396.11 3.4038v3.006h-1.002l1.002-3.006m634.27 0v3.006h-1.002l1.002-3.006m-592.52 35.738-0.3346 0.66733 0.3346-0.66733m550.1 0-0.3347 0.66733 0.3347-0.66733m-548.76 2.3377-1.002 1.002 1.002-1.002m548.1 0-1.002 1.002 1.002-1.002m-500 29.058 1.002 3.006-1.002-3.006m451.9 0-2.004 3.006 2.004-3.006m-397.8 24.048 2.004 3.006-2.004-3.006m343.69 0-3.006 3.006z" display="none" fill="#f8930f"/>
 </g>
</svg>
