<?xml version="1.0" standalone="no"?>
<!DOCTYPE svg PUBLIC "-//W3C//DTD SVG 20010904//EN"
 "http://www.w3.org/TR/2001/REC-SVG-20010904/DTD/svg10.dtd">
<svg version="1.0" xmlns="http://www.w3.org/2000/svg"
 width="700.000000pt" height="700.000000pt" viewBox="0 0 700.000000 700.000000"
 preserveAspectRatio="xMidYMid meet">
<metadata>
Created by potrace 1.11, written by Peter Selinger 2001-2013
</metadata>
<g transform="translate(0.000000,700.000000) scale(0.100000,-0.100000)"
fill="#000000" stroke="none">
<path d="M3507 6175 c-1 -2 -31 -5 -67 -8 -216 -20 -397 -151 -484 -350 -45
-101 -61 -245 -42 -357 26 -142 114 -288 226 -372 52 -38 124 -76 170 -88 38
-10 44 -9 66 11 l25 23 -63 21 c-210 71 -366 276 -373 492 -3 105 8 159 53
253 67 138 214 261 362 301 78 21 215 15 296 -13 181 -64 327 -226 365 -405
14 -72 6 -212 -17 -273 -20 -53 -25 -108 -12 -133 13 -25 22 -15 46 50 125
341 5 656 -301 792 -64 29 -236 67 -250 56z"/>
<path d="M3401 6039 c-109 -21 -235 -108 -301 -207 -116 -175 -92 -435 55
-593 79 -86 234 -159 271 -128 20 16 13 31 -17 36 -13 2 -52 17 -87 33 -109
51 -205 170 -238 293 -14 53 -12 161 4 212 33 106 121 215 216 268 214 119
485 28 597 -199 29 -59 34 -79 34 -144 0 -41 -3 -105 -8 -141 -6 -54 -5 -69 8
-79 21 -17 23 -13 40 66 37 175 0 324 -111 444 -113 121 -287 174 -463 139z"/>
<path d="M1705 5707 c-133 -71 -238 -150 -399 -299 -28 -26 -52 -45 -53 -44
-2 2 6 41 18 87 28 114 29 115 36 188 6 62 6 63 -14 52 -29 -15 -143 -160
-250 -316 -37 -54 -92 -170 -107 -226 l-15 -54 0 61 c-1 34 -6 76 -12 94 l-12
32 -44 -68 c-105 -160 -194 -398 -206 -546 -4 -43 -12 -57 -15 -25 -3 36 -37
128 -47 129 -25 3 -68 -129 -99 -304 -22 -123 -27 -169 -28 -280 l0 -101 -22
49 c-24 55 -55 104 -66 104 -15 0 -34 -161 -33 -295 1 -122 18 -283 39 -372 6
-24 1 -21 -31 22 -40 51 -63 74 -79 75 -8 0 -1 -189 9 -240 3 -14 10 -53 15
-88 14 -83 54 -202 94 -277 l31 -61 -69 48 c-38 26 -71 46 -73 44 -7 -6 26
-143 53 -216 43 -120 121 -265 183 -340 56 -68 56 -71 -6 -41 -32 16 -68 31
-80 35 -22 7 -22 6 -9 -31 35 -100 187 -312 310 -433 41 -41 74 -75 73 -77 -2
-1 -36 6 -77 17 -41 11 -76 17 -78 15 -11 -11 41 -77 140 -177 145 -147 226
-213 313 -255 l70 -34 -100 6 -100 6 35 -37 c44 -46 266 -193 369 -244 78 -39
161 -70 186 -70 7 0 16 -4 19 -8 3 -5 -18 -10 -47 -11 -29 -1 -70 -6 -92 -9
l-40 -7 37 -28 c98 -75 503 -206 620 -200 35 1 7 -14 -36 -20 -24 -4 -60 -14
-80 -23 -46 -22 -35 -36 47 -63 57 -18 75 -22 146 -36 55 -10 216 -20 346 -20
l140 0 55 35 c64 41 96 43 235 16 103 -21 373 -83 395 -92 12 -5 -100 -31
-255 -60 -16 -3 -48 -9 -70 -14 -98 -21 -137 -25 -254 -23 l-123 3 6 -52 c4
-29 9 -54 12 -57 7 -8 242 -6 304 2 30 4 98 17 150 28 52 11 106 22 120 25 14
3 72 21 130 41 143 49 218 50 349 4 194 -68 384 -103 568 -105 78 0 144 2 147
5 4 3 9 29 12 57 l5 51 -128 -2 c-89 -1 -152 3 -208 15 -44 9 -91 19 -105 22
-14 3 -78 15 -142 27 -65 12 -118 26 -118 30 0 4 26 13 58 19 31 7 98 22 147
35 50 12 147 33 218 45 141 26 124 29 237 -36 44 -25 47 -26 195 -20 284 10
402 27 508 74 l42 19 -35 21 c-19 12 -56 25 -83 28 -59 8 -67 18 -17 21 101 6
285 58 463 132 90 36 175 87 164 97 -2 2 -35 7 -73 10 -38 4 -74 7 -81 8 -20
3 -23 12 -5 13 32 3 117 35 197 75 151 76 385 240 385 270 0 4 -42 6 -92 3
-81 -4 -89 -3 -63 8 103 42 184 105 347 268 128 127 178 200 129 184 -11 -3
-29 -8 -40 -10 -12 -3 -30 -7 -42 -10 -11 -2 -30 -7 -42 -11 -14 -4 8 25 58
76 126 129 168 183 279 363 10 16 24 46 31 68 14 40 14 40 -8 33 -12 -3 -48
-19 -81 -35 -65 -32 -65 -37 11 64 86 113 188 338 208 457 4 25 9 53 11 63 3
20 4 20 -80 -36 -32 -22 -57 -36 -55 -31 2 5 17 34 33 64 46 88 75 189 100
350 12 74 19 240 10 240 -15 -1 -49 -33 -82 -79 -35 -48 -36 -47 -23 14 19 82
32 198 35 305 4 133 -17 330 -34 330 -11 0 -51 -64 -71 -114 l-16 -40 -1 84
c0 79 -8 193 -17 238 -2 11 -6 37 -10 58 -4 22 -8 44 -9 49 -2 6 -11 46 -21
91 -19 88 -54 169 -70 164 -13 -4 -45 -88 -45 -117 0 -13 -4 -23 -9 -23 -5 0
-8 8 -7 17 4 28 -22 152 -50 238 -32 98 -99 237 -157 329 l-44 69 -12 -35 c-6
-20 -12 -62 -13 -94 l-1 -59 -16 61 c-21 75 -56 144 -127 249 -80 118 -196
266 -223 284 l-24 16 6 -70 c4 -39 18 -114 32 -169 14 -54 24 -100 23 -101 -2
-2 -39 31 -83 72 -44 42 -110 100 -147 130 -110 89 -287 188 -305 170 -11 -11
77 -176 134 -252 34 -44 106 -127 161 -185 55 -58 99 -106 98 -107 -1 -1 -35
6 -76 17 -102 25 -130 30 -240 37 -89 6 -94 5 -80 -12 33 -40 295 -198 417
-251 93 -40 88 -41 -37 -9 -52 14 -103 25 -113 25 -33 0 16 -59 119 -145 26
-22 52 -45 58 -50 29 -27 101 -79 152 -110 32 -19 55 -35 51 -35 -3 0 -43 14
-89 30 -45 17 -83 30 -85 30 -2 0 4 -16 12 -37 24 -57 99 -141 278 -311 31
-28 58 -56 62 -61 3 -6 -34 12 -82 39 -48 27 -89 47 -92 45 -2 -2 4 -28 13
-56 26 -77 90 -172 198 -294 14 -16 46 -55 69 -85 l42 -55 -58 55 c-33 30 -62
57 -65 61 -3 3 -22 15 -42 28 -31 18 -38 20 -38 7 0 -32 63 -187 135 -330 l74
-150 -67 67 c-37 37 -70 67 -73 67 -7 0 6 -100 20 -162 6 -26 34 -110 61 -187
28 -77 50 -143 50 -148 0 -4 -13 15 -29 42 -29 51 -77 105 -92 105 -10 0 -13
-46 -10 -145 1 -34 16 -134 34 -222 18 -89 30 -160 25 -157 -4 3 -8 11 -8 18
0 20 -70 156 -80 156 -25 0 -33 -84 -33 -335 0 -196 -2 -244 -9 -196 -11 78
-49 197 -63 194 -28 -4 -99 -282 -112 -438 -8 -98 -10 -93 -28 60 -3 33 -9 62
-11 65 -24 23 -152 -264 -185 -410 l-18 -85 2 108 c2 59 0 107 -4 107 -13 0
-99 -99 -135 -156 -38 -59 -117 -222 -127 -259 l-5 -20 0 20 c-1 11 5 47 12
80 16 79 13 89 -25 66 -67 -41 -121 -101 -220 -248 -37 -56 -73 -104 -78 -107
-5 -4 4 30 20 75 16 45 28 84 25 86 -8 8 -109 -47 -155 -85 -25 -20 -89 -82
-144 -137 -87 -88 -95 -94 -64 -48 32 48 53 100 44 109 -7 8 -111 -28 -166
-58 -98 -53 -249 -167 -364 -277 -54 -51 -87 -107 -87 -145 0 -21 -7 -27 -42
-36 -24 -6 -51 -13 -60 -16 -10 -3 -30 -8 -45 -10 -44 -8 -189 -42 -322 -76
l-124 -31 -86 22 c-47 13 -93 25 -101 26 -70 16 -369 87 -382 91 -10 3 -18 15
-18 27 -1 44 -39 104 -106 166 -164 151 -337 269 -443 301 -35 11 -65 20 -68
20 -13 0 11 -60 44 -110 33 -52 29 -49 -68 49 -57 57 -126 122 -153 143 -48
38 -134 83 -142 75 -3 -2 7 -37 22 -77 14 -39 23 -74 21 -77 -3 -2 -41 49 -86
115 -93 135 -155 204 -213 233 -37 19 -39 19 -35 2 13 -48 29 -155 23 -160 -3
-4 -6 1 -6 10 0 24 -80 192 -124 261 -36 57 -122 156 -135 156 -4 0 -5 -48 -3
-107 4 -110 -1 -134 -11 -52 -7 57 -37 147 -90 269 -37 86 -94 186 -102 178
-2 -2 -6 -31 -10 -64 -3 -34 -10 -84 -14 -110 l-9 -49 -2 40 c-4 82 -17 175
-34 256 -19 89 -69 231 -81 232 -14 3 -54 -126 -62 -196 -7 -63 -20 -87 -16
-29 2 21 4 136 4 257 2 212 -8 305 -31 305 -10 0 -80 -136 -80 -156 0 -7 -4
-16 -10 -19 -5 -3 -8 0 -5 7 2 7 6 24 9 38 2 14 9 45 15 70 5 25 13 60 16 79
3 19 8 37 10 40 7 13 19 149 17 209 -3 98 -12 104 -60 41 -23 -30 -48 -70 -56
-89 -31 -71 -14 -7 33 127 53 152 77 243 84 316 l4 49 -74 -74 -74 -73 71 140
c72 143 122 263 135 324 l7 33 -33 -18 c-18 -11 -64 -48 -103 -84 l-71 -65 50
62 c28 34 84 103 126 155 78 96 132 188 144 246 l7 34 -99 -53 -98 -53 80 75
c181 168 285 289 285 331 0 15 -9 13 -82 -13 -44 -16 -83 -29 -86 -29 -3 0 21
16 54 36 49 30 121 85 229 176 49 41 63 55 90 92 l29 38 -34 -5 c-19 -3 -78
-17 -130 -30 -52 -14 -96 -24 -98 -22 -1 1 19 10 45 20 104 38 416 219 458
265 l19 21 -74 -2 c-85 -2 -197 -21 -296 -48 -21 -6 -39 -9 -41 -8 -1 2 19 26
45 53 178 181 393 495 339 494 -7 -1 -39 -15 -72 -33z"/>
<path d="M3519 5539 c20 -47 44 -196 44 -274 2 -183 -72 -318 -322 -594 -194
-213 -265 -333 -299 -501 -19 -96 -23 -260 -7 -345 23 -128 90 -267 172 -356
86 -93 293 -199 387 -199 68 0 100 37 223 249 287 496 383 836 350 1240 -4 46
-9 86 -11 90 -2 3 -7 22 -10 41 -24 151 -110 341 -207 462 -83 103 -211 191
-294 205 -35 6 -35 5 -26 -18z m148 -111 c134 -117 219 -237 276 -388 126
-338 80 -793 -123 -1203 -66 -133 -226 -397 -274 -453 -43 -50 -78 -49 -180 1
-124 61 -193 153 -219 293 -38 200 22 432 156 607 31 40 135 145 237 241 146
135 225 243 255 348 18 61 18 143 0 196 -12 34 -12 33 -10 -26 6 -114 -24
-209 -98 -319 -23 -33 -118 -136 -212 -230 -193 -192 -230 -235 -273 -320 -88
-177 -110 -359 -69 -574 9 -47 15 -86 13 -89 -6 -6 -65 83 -95 146 -97 196
-87 497 22 702 45 83 134 200 249 325 85 93 172 205 214 275 82 138 103 252
80 433 -10 78 -4 82 51 35z"/>
<path d="M2990 4659 c-117 -40 -229 -99 -332 -172 -120 -86 -198 -160 -318
-303 -142 -169 -268 -466 -286 -674 -3 -36 -7 -77 -9 -92 -3 -23 1 -28 18 -29
12 0 46 -2 75 -4 l52 -4 1 32 c4 115 47 276 110 414 85 187 251 394 392 489
76 51 129 84 135 84 4 1 39 22 77 48 66 45 152 141 191 215 13 25 13 27 -3 26
-10 0 -56 -14 -103 -30z"/>
<path d="M4169 4513 c-2 -99 -2 -100 106 -171 174 -116 348 -337 442 -562 25
-59 62 -169 68 -200 1 -3 5 -30 10 -60 5 -30 10 -59 11 -65 1 -5 2 -24 3 -41
l1 -30 63 1 c35 1 68 5 74 8 12 7 7 86 -12 190 -31 167 -110 352 -220 517
-116 172 -329 376 -466 446 -73 36 -79 34 -80 -33z"/>
<path d="M2804 4246 c-67 -45 -195 -174 -260 -262 -131 -177 -214 -395 -218
-574 -1 -24 1 -25 54 -22 30 2 56 4 57 5 1 2 5 18 8 37 3 19 8 48 11 64 2 15
28 88 55 162 45 116 62 149 141 256 49 67 107 139 128 159 33 31 43 50 60 119
12 45 19 84 17 86 -2 2 -25 -12 -53 -30z"/>
<path d="M4130 4236 c-18 -64 -8 -88 57 -142 113 -94 192 -192 256 -319 62
-121 89 -203 102 -314 9 -73 19 -82 78 -79 l52 3 -3 50 c-17 305 -230 656
-503 829 l-26 17 -13 -45z"/>
<path d="M1524 3400 c-11 -4 -40 -30 -63 -57 l-43 -48 79 -37 c140 -64 295
-110 448 -134 28 -4 201 -8 385 -9 419 -2 522 -17 690 -98 68 -32 101 -57 165
-121 89 -89 128 -154 171 -284 l27 -82 41 -7 c22 -4 50 -7 61 -6 134 7 131 5
165 108 85 260 272 417 550 460 25 4 53 9 63 11 53 9 203 16 462 19 160 2 315
6 345 10 116 14 320 77 452 140 l58 27 -27 37 c-53 75 -102 92 -167 60 -39
-19 -222 -80 -295 -99 -70 -18 -107 -20 -431 -25 -168 -2 -327 -7 -355 -9 -27
-3 -73 -8 -101 -11 -79 -8 -232 -50 -304 -83 -155 -73 -263 -182 -347 -354
-27 -53 -51 -97 -54 -97 -4 -1 -14 18 -23 42 -23 62 -95 178 -147 239 -116
136 -308 226 -536 253 -24 3 -64 8 -90 11 -27 3 -190 7 -365 9 -174 2 -345 9
-380 15 -71 12 -214 57 -324 101 -81 32 -80 31 -110 19z"/>
<path d="M1345 3228 c-22 -12 -80 -73 -95 -99 -8 -14 1 -21 48 -42 167 -75
321 -116 522 -142 25 -3 61 -8 80 -11 19 -3 172 -7 340 -9 340 -4 445 -11 512
-31 9 -3 27 -7 40 -9 52 -10 171 -79 221 -128 75 -74 157 -246 183 -382 3 -19
10 -37 14 -40 4 -2 127 -5 275 -6 212 -1 270 2 280 13 8 7 32 62 55 121 58
155 91 215 152 279 81 85 162 126 305 154 116 22 168 25 513 28 179 2 334 6
345 9 11 2 43 8 70 11 163 23 367 81 488 140 l69 32 -28 35 c-81 98 -102 104
-198 56 -75 -38 -172 -74 -267 -102 -59 -16 -69 -19 -134 -29 -107 -17 -158
-20 -590 -31 -237 -6 -293 -10 -390 -29 -45 -9 -153 -49 -195 -73 -67 -38
-170 -149 -207 -224 -18 -35 -40 -93 -49 -129 -20 -78 -38 -115 -59 -124 -23
-9 -288 -7 -301 2 -17 11 -30 42 -43 102 -34 151 -122 284 -241 360 -94 60
-196 86 -420 105 -41 4 -88 9 -105 12 -16 3 -146 7 -289 9 -142 1 -286 6 -320
9 -132 14 -334 77 -468 146 -62 31 -82 35 -113 17z"/>
<path d="M3970 2218 c-69 -10 -120 -27 -120 -39 0 -9 8 -11 49 -13 l24 -1 -1
-264 -1 -265 -33 -30 -32 -31 39 -6 c22 -3 96 -5 165 -4 107 0 131 4 165 22
112 59 138 165 67 268 -15 22 -44 49 -63 60 l-36 20 32 32 c17 18 37 50 43 71
28 92 -26 161 -138 176 -80 12 -104 12 -160 4z m218 -109 c53 -78 -18 -156
-158 -171 l-25 -3 0 120 0 120 30 6 c44 8 125 -29 153 -72z m-41 -223 c63 -33
105 -94 106 -155 2 -74 -59 -121 -164 -127 -62 -3 -88 10 -90 44 -4 85 3 227
11 238 21 25 89 25 137 0z"/>
<path d="M2738 2207 c-56 -8 -68 -13 -68 -28 0 -16 5 -18 35 -13 l35 5 0 -266
0 -266 -36 -35 c-35 -33 -36 -34 -13 -35 13 0 75 -3 138 -6 174 -8 262 23 306
106 19 39 22 95 6 144 -13 40 -91 117 -118 117 -15 0 -13 4 8 23 39 32 59 69
64 113 5 54 -17 95 -68 123 -35 21 -57 25 -132 26 -49 1 -120 -2 -157 -8z
m233 -54 c72 -43 63 -160 -16 -197 -16 -8 -52 -16 -80 -18 l-49 -3 -1 115 c-1
63 0 119 3 124 7 13 111 -2 143 -21z m-1 -269 c98 -50 135 -171 70 -233 -48
-46 -155 -66 -197 -36 -19 13 -21 24 -21 127 0 62 2 121 4 130 10 35 87 42
144 12z"/>
<path d="M3604 2198 c-3 -4 6 -12 20 -18 32 -12 34 -44 6 -80 -11 -14 -20 -28
-20 -32 0 -13 -84 -148 -91 -148 -4 0 -10 9 -14 19 -9 30 -97 183 -129 224
-28 36 -30 37 -92 37 -35 0 -64 -4 -64 -9 0 -5 21 -21 46 -36 66 -39 161 -192
194 -316 16 -59 22 -163 10 -193 -5 -13 -23 -32 -39 -42 -17 -10 -31 -22 -31
-26 0 -4 52 -8 115 -8 118 0 145 10 86 33 -41 15 -55 46 -54 120 1 78 20 134
94 272 67 123 92 156 139 180 17 9 29 19 26 22 -9 9 -197 10 -202 1z"/>
</g>
</svg>
